<svg width="232" height="52" viewBox="0 0 232 52" fill="none" xmlns="http://www.w3.org/2000/svg">
<path d="M10.3389 16.8135C6.20333 16.8135 3.24937 19.4416 2.46164 21.9723V17.4462H0V42.7045H2.46164V29.3697C2.46164 24.1136 4.28325 19.1982 10.3389 19.1982V16.8135Z" fill="white"/>
<path d="M20.2778 30.051C20.2778 23.8703 24.6102 19.1009 30.8136 19.1009C37.0662 19.1009 41.3986 23.8703 41.3986 30.051C41.3986 36.3778 37.0169 41.0498 30.8136 41.0498C24.6102 41.0498 20.2778 36.3778 20.2778 30.051ZM17.7177 30.051C17.7177 37.7405 23.281 43.3372 30.8136 43.3372C38.297 43.3372 43.9587 37.6431 43.9587 30.051C43.9587 22.5563 38.3954 16.8135 30.8628 16.8135C23.3302 16.8135 17.7177 22.4589 17.7177 30.051Z" fill="white"/>
<path d="M54.4157 42.7045H56.8774V7.51807H54.4157V42.7045Z" fill="white"/>
<path d="M67.4228 34.9664C67.4228 39.6385 71.4107 43.3372 77.2201 43.3372C80.9126 43.3372 83.1773 41.8772 84.5558 40.3198L84.9989 42.7045H87.0174V25.7196C87.0174 20.4636 84.0635 16.8135 77.7124 16.8135C73.38 16.8135 70.0321 18.6142 68.6536 19.4902L69.6875 21.3883C71.4599 20.3176 74.1677 19.0522 77.5648 19.0522C81.7495 19.0522 84.5558 21.3396 84.5558 25.5736V29.4184C83.4235 28.153 80.7157 26.693 77.2201 26.693C71.5583 26.693 67.4228 30.197 67.4228 34.9664ZM69.9337 34.9664C69.9337 31.5597 72.7892 28.9317 77.3186 28.9317C81.7988 28.9317 84.7035 31.3651 84.7035 34.9664C84.7035 38.4705 81.7003 41.0985 77.3678 41.0985C72.7892 41.0985 69.9337 38.3245 69.9337 34.9664Z" fill="white"/>
<path d="M109.268 16.8135C105.674 16.8135 102.573 18.9062 101.293 21.4369V17.4462H98.831V42.7045H101.293V27.277C101.293 22.3616 104.493 19.0522 108.973 19.0522C112.961 19.0522 115.915 21.8749 115.915 26.4983V42.7045H118.376V26.3036C118.376 20.4149 114.536 16.8135 109.268 16.8135Z" fill="white"/>
<path d="M152.987 7.51807H150.525V22.2643C149.688 20.7069 146.586 16.8135 140.777 16.8135C133.589 16.8135 128.567 22.3616 128.567 30.1484C128.567 37.8378 133.737 43.3372 141.023 43.3372C147.177 43.3372 149.934 39.0058 150.525 38.0325V42.7045H152.987V7.51807ZM150.624 30.1484C150.624 36.0858 146.882 41.0498 140.925 41.0498C135.46 41.0498 131.127 36.7671 131.127 30.1484C131.127 23.6756 135.263 19.1009 140.826 19.1009C146.143 19.1009 150.624 23.1403 150.624 30.1484Z" fill="white"/>
<path d="M166.447 49.372C168.662 50.7833 172.256 52 175.456 52C182.792 52 187.863 48.6419 187.863 39.0545V17.4462H185.402V22.2643C184.565 20.7069 181.463 16.8135 175.653 16.8135C168.465 16.8135 163.444 22.3616 163.444 30.1484C163.444 37.8378 168.613 43.3372 175.9 43.3372C182.054 43.3372 184.811 39.0058 185.402 38.0325V40.7578C185.402 47.2793 180.921 49.7126 175.407 49.7126C171.666 49.7126 168.564 48.1066 167.481 47.4253L166.447 49.372ZM185.5 30.1484C185.5 36.0858 181.758 41.0498 175.801 41.0498C170.336 41.0498 166.004 36.7671 166.004 30.1484C166.004 23.6756 170.139 19.1009 175.703 19.1009C181.02 19.1009 185.5 23.1403 185.5 30.1484Z" fill="white"/>
<path d="M198.13 34.9664C198.13 39.6385 202.118 43.3372 207.927 43.3372C211.62 43.3372 213.885 41.8772 215.263 40.3198L215.706 42.7045H217.725V25.7196C217.725 20.4636 214.771 16.8135 208.42 16.8135C204.087 16.8135 200.739 18.6142 199.361 19.4902L200.395 21.3883C202.167 20.3176 204.875 19.0522 208.272 19.0522C212.457 19.0522 215.263 21.3396 215.263 25.5736V29.4184C214.131 28.153 211.423 26.693 207.927 26.693C202.266 26.693 198.13 30.197 198.13 34.9664ZM200.641 34.9664C200.641 31.5597 203.497 28.9317 208.026 28.9317C212.506 28.9317 215.411 31.3651 215.411 34.9664C215.411 38.4705 212.408 41.0985 208.075 41.0985C203.497 41.0985 200.641 38.3245 200.641 34.9664Z" fill="white"/>
<path d="M229.538 42.7045H232V7.51807H229.538V42.7045Z" fill="white"/>
<path d="M214.348 5.01205C214.348 7.78013 212.09 10.0241 209.304 10.0241C206.519 10.0241 204.261 7.78013 204.261 5.01205C204.261 2.24397 206.519 0 209.304 0C212.09 0 214.348 2.24397 214.348 5.01205Z" fill="#ED398F"/>
</svg>
